<svg width="32" height="32" viewBox="0 0 32 32" fill="none" xmlns="http://www.w3.org/2000/svg">
<g id="icon/spot/24X24/ARS">
<path id="Fill 1" fill-rule="evenodd" clip-rule="evenodd" d="M6.54526 6.66349C6.47726 6.66349 6.38393 6.67944 6.31193 6.74988L4.65193 8.41778L4.64926 8.42044C4.04259 9.02514 3.61326 9.79198 3.37193 10.7024C2.57593 13.7165 4.63059 17.7009 9.48259 22.5398C14.3373 27.3801 18.3306 29.4307 21.3506 28.6347C22.2613 28.3941 23.0306 27.9662 23.6386 27.3601L25.3066 25.6962C25.4546 25.55 25.4066 25.2457 25.2079 25.0463L20.9613 20.8135C20.8439 20.6952 20.6919 20.6287 20.5466 20.6287C20.4786 20.6287 20.3839 20.642 20.3133 20.7138L18.2079 22.8149C17.9066 23.118 17.4333 23.1724 17.0693 22.9558C15.4653 21.9989 13.9559 20.8201 12.5799 19.4499C11.2053 18.0784 10.0226 16.5713 9.06526 14.9725C8.84659 14.607 8.90526 14.1392 9.20659 13.8375L11.3119 11.7376C11.4613 11.5901 11.4159 11.2924 11.2133 11.0891L6.96126 6.84955C6.84259 6.73127 6.69059 6.66349 6.54526 6.66349ZM20.0025 30.6667C16.6359 30.6667 12.7412 28.4207 8.16252 23.8555C2.73319 18.4385 0.575858 13.9823 1.56786 10.2279C1.89319 8.99587 2.48519 7.94595 3.32786 7.10602L4.98652 5.43944C5.39586 5.02877 5.94919 4.80284 6.54386 4.80151H6.54519C7.18386 4.80151 7.81719 5.06997 8.28253 5.53513L12.5332 9.77467C13.4665 10.7076 13.5119 12.1775 12.6319 13.0533L11.0505 14.6322C11.8545 15.8722 12.8119 17.047 13.9012 18.1341C14.9892 19.2186 16.1679 20.1728 17.4105 20.9756L18.9932 19.398C19.4025 18.9913 19.9532 18.7667 20.5465 18.7667H20.5479C21.1852 18.7667 21.8172 19.0339 22.2825 19.499L26.5279 23.7319C27.4612 24.6649 27.5065 26.1361 26.6279 27.0119L24.9599 28.6758C24.1145 29.5171 23.0612 30.1085 21.8279 30.4341C21.2372 30.5896 20.6279 30.6667 20.0025 30.6667Z" fill="#111111"/>
<path id="Combined Shape" fill-rule="evenodd" clip-rule="evenodd" d="M29.5257 15.8895C29.575 15.8974 29.6217 15.9014 29.6697 15.9014C30.1217 15.9014 30.5204 15.5732 30.5897 15.1133C31.059 12.0912 29.5164 8.38321 26.563 5.4368C23.6084 2.49172 19.8897 0.943422 16.8617 1.41788C16.3524 1.49496 16.0017 1.97075 16.0817 2.4771C16.1577 2.98478 16.6324 3.33564 17.1444 3.25457C19.5644 2.88245 22.7404 4.25664 25.243 6.75252C27.7457 9.2484 29.1204 12.4194 28.747 14.8276C28.667 15.3366 29.0164 15.8124 29.5257 15.8895ZM22.5674 15.8809C22.5674 16.3952 22.9847 16.8112 23.5007 16.8112C24.0168 16.8112 24.4341 16.3952 24.4341 15.8809C24.4341 13.595 23.5408 11.446 21.9194 9.82727C20.5461 8.45972 18.7314 7.58922 16.8061 7.37525C16.3087 7.32342 15.8314 7.68623 15.7754 8.1979C15.7181 8.70691 16.0861 9.16808 16.5994 9.2239C18.1274 9.39401 19.5101 10.0572 20.5994 11.143C21.8674 12.4082 22.5674 14.0907 22.5674 15.8809Z" fill="#3182F6"/>
</g>
</svg>
